<?xml version="1.0" encoding="UTF-8" standalone="no"?>
<svg
   viewBox="0 0 24 24"
   version="1.1"
   id="svg3"
   sodipodi:docname="unrender_kaeriten.svg"
   inkscape:version="1.4.4 (dcaf3e7, 2026-05-05)"
   xmlns:inkscape="http://www.inkscape.org/namespaces/inkscape"
   xmlns:sodipodi="http://sodipodi.sourceforge.net/DTD/sodipodi-0.dtd"
   xmlns="http://www.w3.org/2000/svg"
   xmlns:svg="http://www.w3.org/2000/svg">
  <defs
     id="defs3" />
  <sodipodi:namedview
     id="namedview3"
     pagecolor="#ffffff"
     bordercolor="#000000"
     borderopacity="0.25"
     inkscape:showpageshadow="2"
     inkscape:pageopacity="0.0"
     inkscape:pagecheckerboard="0"
     inkscape:deskcolor="#d1d1d1"
     inkscape:zoom="1.6075631"
     inkscape:cx="-227.6738"
     inkscape:cy="28.92577"
     inkscape:window-width="1920"
     inkscape:window-height="1022"
     inkscape:window-x="1920"
     inkscape:window-y="30"
     inkscape:window-maximized="1"
     inkscape:current-layer="svg3" />
  <linearGradient
     id="a"
     gradientUnits="userSpaceOnUse"
     x1="14.999655"
     x2="14.999655"
     y1="10.000005"
     y2="2.491702">
    <stop
       offset="0"
       stop-color="#0040dd"
       id="stop1" />
    <stop
       offset="1"
       stop-color="#007aff"
       id="stop2" />
  </linearGradient>
  <path
     style="font-size:11.8372px;font-family:'Noto Sans JP';-inkscape-font-specification:'Noto Sans JP, @wght=700';font-variation-settings:'wght' 700;fill:#48484a;stroke-width:0.153027"
     d="m 11.380332,7.7063882 1.291693,0.4904956 Q 12.03627,10.520284 11.027135,12.224111 10.018,13.927939 8.6253936,15.102546 7.2428786,16.264247 5.4264356,16.99999 5.3658875,16.793465 5.2246086,16.509495 5.0833297,16.225523 4.9319595,15.941552 4.7906805,15.670489 4.659493,15.48978 6.4052966,14.896022 7.7171721,13.876307 9.0290474,12.856593 9.9372689,11.346383 10.84549,9.8232641 11.380332,7.7063882 Z M 7.4749797,7.8096508 q 0.5146589,1.9232593 1.4228806,3.4463772 0.9082215,1.523118 2.2402797,2.581556 1.34215,1.058439 3.128318,1.57475 -0.141279,0.180708 -0.312831,0.46468 -0.161462,0.28397 -0.312832,0.567942 -0.15137,0.296879 -0.242193,0.516311 Q 11.51152,16.341693 10.149188,15.154178 8.7868552,13.953754 7.8382683,12.237019 6.8997727,10.520284 6.2640177,8.2743305 Z M 4.8411373,6.8802901 H 14.084814 V 8.3905005 H 4.8411373 Z m 3.975992,-2.052337 H 10.058366 V 7.7967426 H 8.8171293 Z"
     id="text3"
     aria-label="文" />
  <path
     d="m 14.26648,5.7312445 h 3.447275 v -0.8419 H 14.26648 Z"
     id="text4"
     style="font-size:5.89368px;font-family:'Noto Sans JP';-inkscape-font-specification:'Noto Sans JP, @wght=700';font-variation-settings:'wght' 700;fill:#48484a;fill-opacity:1;stroke-width:0.0655826"
     aria-label="一&#10;" />
  <path
     d="m 18.951925,7.9475251 q 0.04835,-0.1306684 0.0591,-0.2269512 0.01074,-0.09628 0.01074,-0.2200736 0,-0.1306685 0,-0.398884 0,-0.2682156 0,-0.6189587 0,-0.3576197 0,-0.7496261 0,-0.3920075 0,-0.7702598 0,-0.3782514 0,-0.6877312 0,-0.3094789 0,-0.5020433 0,-0.1306685 -0.01074,-0.2750921 -0.0053,-0.1444236 -0.0215,-0.275093 -0.01074,-0.1375461 -0.02686,-0.2338288 h 0.843412 q -0.02149,0.199442 -0.0376,0.3920074 -0.01612,0.1925645 -0.01612,0.3920065 0,0.1650552 0,0.4126391 0,0.2407053 0,0.53643 0,0.2957248 0,0.6120812 0,0.3163553 0,0.6258352 0,0.3094788 0,0.5845709 0,0.275093 0,0.4814126 0,0.2063185 0,0.3232329 Q 20.08005,7.2254082 20.45072,7.0122111 20.826766,6.7921374 21.202808,6.4964127 21.584224,6.1938114 21.917291,5.8361907 22.25573,5.47857 22.513589,5.0728095 l 0.381421,0.7771363 q -0.547948,0.8459089 -1.359129,1.4648666 -0.805807,0.6120811 -1.756661,1.0109651 -0.05373,0.027504 -0.139673,0.068776 -0.08595,0.041261 -0.177278,0.1169144 z"
     id="text6"
     style="font-size:6.84876px;font-family:'Noto Sans JP';-inkscape-font-specification:'Noto Sans JP, @wght=700';font-variation-settings:'wght' 700;fill:#48484a;fill-opacity:1;stroke-width:0.0814971"
     aria-label="レ" />
</svg>
