<?xml version="1.0" encoding="UTF-8" standalone="no"?>
<!-- Created with Inkscape (http://www.inkscape.org/) -->

<svg
   width="240"
   height="120"
   viewBox="0 0 63.499999 31.75"
   version="1.1"
   id="svg1"
   xml:space="preserve"
   inkscape:version="1.4.4 (dcaf3e7, 2026-05-05)"
   sodipodi:docname="icon.svg"
   inkscape:export-filename="icon.png"
   inkscape:export-xdpi="96"
   inkscape:export-ydpi="96"
   xmlns:inkscape="http://www.inkscape.org/namespaces/inkscape"
   xmlns:sodipodi="http://sodipodi.sourceforge.net/DTD/sodipodi-0.dtd"
   xmlns="http://www.w3.org/2000/svg"
   xmlns:svg="http://www.w3.org/2000/svg"><sodipodi:namedview
     id="namedview1"
     pagecolor="#ffffff"
     bordercolor="#000000"
     borderopacity="0.25"
     inkscape:showpageshadow="2"
     inkscape:pageopacity="0.0"
     inkscape:pagecheckerboard="0"
     inkscape:deskcolor="#d1d1d1"
     inkscape:document-units="mm"
     inkscape:zoom="0.9274285"
     inkscape:cx="141.25078"
     inkscape:cy="90.57302"
     inkscape:window-width="1512"
     inkscape:window-height="921"
     inkscape:window-x="0"
     inkscape:window-y="33"
     inkscape:window-maximized="1"
     inkscape:current-layer="svg1" /><defs
     id="defs1" /><g
     id="g1"
     style="display:inline"
     transform="matrix(0.17931659,0,0,0.17931659,1.3857241,-1.2049059)"><text
       xml:space="preserve"
       style="font-weight:bold;font-size:10.1054px;line-height:0.9;font-family:'Noto Serif CJK JP';-inkscape-font-specification:'Noto Serif CJK JP, Bold';text-align:start;writing-mode:lr-tb;direction:ltr;text-orientation:upright;text-anchor:start;display:inline;fill:#ffffff;fill-opacity:1;stroke-width:0.473689;paint-order:markers stroke fill"
       x="96.43261"
       y="114.78638"
       id="text6"><tspan
         sodipodi:role="line"
         id="tspan6"
         x="96.43261"
         y="114.78638"
         style="font-style:normal;font-variant:normal;font-weight:bold;font-stretch:normal;font-size:45.4742px;font-family:Calibri;-inkscape-font-specification:'Calibri, Bold';font-variant-ligatures:normal;font-variant-caps:normal;font-variant-numeric:normal;font-variant-east-asian:normal;fill:#ffffff;fill-opacity:1;stroke-width:0.473689">marinaMoji</tspan></text><path
       id="path4"
       style="display:inline;fill:#ffffff;fill-opacity:1;stroke-width:0.0830629"
       d="m 53.311011,66.680436 c -16.495755,0 -17.710631,0.0098 -18.564529,0.147374 -4.343736,0.699837 -7.648493,2.991291 -9.424824,6.53512 -0.689582,1.375734 -1.093145,2.949119 -1.245981,4.854971 -0.114501,1.428783 -0.116109,31.793899 -0.0017,33.399909 0.285119,4.00145 1.534941,6.80566 4.012176,9.00112 2.19916,1.94902 4.88614,2.97218 8.279744,3.15347 1.796533,0.096 33.821926,0.0317 34.845175,-0.0699 3.157795,-0.31368 5.792515,-1.50963 7.856885,-3.56628 2.00153,-1.99406 2.99043,-4.18506 3.41347,-7.56339 0.15897,-1.2694 0.16052,-33.722642 0.002,-34.886212 -0.43929,-3.217754 -1.46026,-5.439334 -3.3783,-7.351956 -1.91922,-1.913795 -4.186097,-3.012506 -7.236823,-3.507252 -0.846166,-0.137216 -2.071699,-0.146956 -18.556993,-0.146956 z m 0.271719,7.71453 c 5.163825,0 8.66308,2.113186 9.968686,6.019311 0.818471,2.448702 0.159534,5.455987 -1.425594,6.504976 -0.836263,0.553418 -1.886111,0.616493 -2.589931,0.155328 -0.259523,-0.170042 -0.808549,-0.834721 -1.220024,-1.476672 -0.970835,-1.514608 -1.563998,-1.826428 -3.467894,-1.824173 -1.263261,0.0015 -1.511174,0.06174 -2.725586,0.661928 -2.251773,1.112889 -4.272102,3.40898 -5.334353,6.062434 -0.252039,0.629591 -0.585068,1.918169 -0.740222,2.863326 -0.671292,4.089566 0.759045,7.940726 4.097587,11.031706 1.700269,1.57419 2.080924,1.74443 1.18318,0.5292 -0.400095,-0.54159 -1.060593,-1.61303 -1.467461,-2.38059 -1.853771,-3.497125 -1.974615,-7.695836 -0.316101,-10.974344 0.408031,-0.806589 0.958543,-1.397479 0.678674,-0.728497 -0.796266,1.903368 -0.786596,4.843297 0.02387,7.158111 1.734808,4.95488 6.142712,8.73441 12.109795,10.38317 1.984834,0.54843 5.464694,0.78976 5.776058,0.40068 0.199848,-0.24975 0.494759,-10.276299 0.296423,-10.077962 -0.058,0.058 -0.88927,1.676542 -1.847619,3.596852 -1.738047,3.48265 -1.744138,3.49149 -2.293927,3.46705 -0.835079,-0.0371 -2.368923,-0.56634 -3.892854,-1.34269 -1.455934,-0.7417 -1.863598,-1.13895 -1.575897,-1.53529 4.64451,-6.398061 8.247945,-15.283873 8.781737,-21.654357 0.165306,-1.972877 0.134962,-1.946139 3.603548,-3.164355 2.132298,-0.748891 4.634498,-0.994597 5.125853,-0.503248 0.272659,0.272662 0.293499,1.494183 0.293499,17.205503 0,13.327767 -0.04573,16.946567 -0.215206,17.075297 -0.242039,0.18385 -4.906618,0.69306 -7.784449,0.84992 -1.040807,0.0567 -2.89895,0.0128 -4.128986,-0.098 -8.273039,-0.74507 -14.523696,-4.05109 -18.241315,-9.64714 -2.038855,-3.069053 -2.751594,-5.690568 -2.619239,-9.632909 0.06449,-1.920787 0.159338,-2.576599 0.549304,-3.785673 0.550756,-1.707589 1.561459,-3.672292 2.441721,-4.746534 0.761894,-0.929792 0.552969,-0.973298 -1.251424,-0.261254 -3.712353,1.464965 -6.20439,4.313366 -7.390056,8.446796 -0.423627,1.476842 -0.45208,1.771218 -0.362575,3.769342 0.115685,2.582131 0.523904,4.263772 1.575062,6.489482 3.302956,6.99374 9.443769,10.59184 19.965418,11.69824 l 1.204532,0.12686 -0.774133,0.12811 c -1.27482,0.21153 -6.151137,0.13611 -8.085895,-0.12518 -10.384691,-1.4025 -17.145461,-8.03611 -17.084509,-16.762968 0.02062,-2.953651 0.829717,-5.62038 2.541365,-8.373527 0.709628,-1.141403 0.07629,-0.725488 -1.210392,0.794648 -1.310781,1.548604 -2.660423,4.141921 -3.189477,6.127747 -0.472414,1.773243 -0.528013,5.24531 -0.113042,7.07772 0.824122,3.63924 3.198092,7.42085 6.131096,9.76605 0.58113,0.46466 1.019541,0.88208 0.973841,0.92778 -0.136186,0.13619 -3.605734,-1.65098 -4.505376,-2.32072 -4.575598,-3.40636 -6.694526,-8.26633 -6.361369,-14.590869 0.389102,-7.386759 4.475212,-13.980854 11.675208,-18.840854 4.503345,-3.039768 8.732344,-4.469791 13.218449,-4.469791 z"
       inkscape:label="new_icon" /></g></svg>
