<?xml version="1.0" encoding="UTF-8" standalone="no"?>
<!-- Created with Inkscape (http://www.inkscape.org/) -->

<svg
   version="1.1"
   id="svg1"
   width="320.95001"
   height="320.95001"
   viewBox="0 0 320.95001 320.95001"
   sodipodi:docname="logo_square_dark.svg"
   inkscape:version="1.4.3 (0d15f75042, 2025-12-25)"
   inkscape:export-filename="../256/logo_square_dark.png"
   inkscape:export-xdpi="76.57267"
   inkscape:export-ydpi="76.57267"
   xml:space="preserve"
   xmlns:inkscape="http://www.inkscape.org/namespaces/inkscape"
   xmlns:sodipodi="http://sodipodi.sourceforge.net/DTD/sodipodi-0.dtd"
   xmlns="http://www.w3.org/2000/svg"
   xmlns:svg="http://www.w3.org/2000/svg"><defs
     id="defs1" /><sodipodi:namedview
     id="namedview1"
     pagecolor="#ffffff"
     bordercolor="#000000"
     borderopacity="0.25"
     inkscape:showpageshadow="2"
     inkscape:pageopacity="0.0"
     inkscape:pagecheckerboard="0"
     inkscape:deskcolor="#d1d1d1"
     showguides="true"
     inkscape:zoom="0.37811875"
     inkscape:cx="868.77469"
     inkscape:cy="-156.03564"
     inkscape:window-width="1920"
     inkscape:window-height="1009"
     inkscape:window-x="0"
     inkscape:window-y="0"
     inkscape:window-maximized="1"
     inkscape:current-layer="svg1"><sodipodi:guide
       position="805.22497,731.83084"
       orientation="0,-1"
       id="guide2"
       inkscape:locked="false" /></sodipodi:namedview><g
     inkscape:groupmode="layer"
     inkscape:label="Dark"
     id="g1"
     transform="translate(-97.859528,-97.859528)"
     style="display:inline"><path
       id="path7"
       style="display:inline;fill:#ffffff;fill-opacity:1;stroke-width:0.387489"
       d="m 258.40836,125.05679 c -76.95269,0 -82.62009,0.0457 -86.60352,0.6875 -20.26353,3.26474 -35.68022,13.95437 -43.9668,30.48633 -3.2169,6.4178 -5.09952,13.75764 -5.8125,22.64844 -0.53415,6.66527 -0.54165,148.31852 -0.008,155.81055 1.33008,18.66676 7.1605,31.74841 18.7168,41.99023 10.25908,9.09215 22.79384,13.86522 38.625,14.71094 8.38083,0.44771 157.77927,0.14799 162.55273,-0.32617 14.73111,-1.4633 27.02208,-7.04243 36.65235,-16.63672 9.33714,-9.30227 13.95034,-19.52328 15.92382,-35.28321 0.7416,-5.92175 0.74885,-157.31608 0.008,-162.74414 -2.04928,-15.01082 -6.8121,-25.37449 -15.75977,-34.29687 -8.95314,-8.92785 -19.52812,-14.05334 -33.75976,-16.36133 -3.94736,-0.64011 -9.66447,-0.68555 -86.56836,-0.68555 z m 1.26757,35.98828 c 24.08924,0 40.41326,9.85801 46.50391,28.08008 3.81817,11.4232 0.74423,25.45218 -6.65039,30.34571 -3.90117,2.5817 -8.79871,2.87594 -12.08203,0.72461 -1.21067,-0.79325 -3.77188,-3.89398 -5.69141,-6.88868 -4.52895,-7.06564 -7.29605,-8.52028 -16.17773,-8.50976 -5.89311,0.007 -7.04962,0.288 -12.71485,3.08789 -10.50452,5.19163 -19.92936,15.90289 -24.88476,28.28125 -1.17576,2.93704 -2.72934,8.94826 -3.45313,13.35742 -3.13158,19.07782 3.54094,37.04347 19.11524,51.46289 7.93175,7.34358 9.70751,8.13777 5.51953,2.46875 -1.86644,-2.52655 -4.94766,-7.52482 -6.8457,-11.10547 -8.64784,-16.31409 -9.21158,-35.90107 -1.47461,-51.19531 1.90346,-3.76274 4.4716,-6.51924 3.16601,-3.39844 -3.71458,8.87921 -3.66947,22.59398 0.11133,33.39258 8.09288,23.11452 28.65575,40.74603 56.49219,48.4375 9.25925,2.55839 25.4928,3.68423 26.94531,1.86914 0.93229,-1.16505 2.30805,-47.93891 1.38281,-47.01367 -0.27056,0.27055 -4.14844,7.82109 -8.61914,16.7793 -8.10799,16.24657 -8.1364,16.28782 -10.70117,16.17382 -3.89564,-0.17322 -11.05102,-2.64202 -18.16016,-6.26367 -6.79193,-3.46004 -8.69368,-5.31318 -7.35156,-7.16211 21.66664,-29.84697 38.47666,-71.29927 40.9668,-101.01758 0.77115,-9.20347 0.6296,-9.07874 16.81055,-14.76171 9.94717,-3.49358 21.61993,-4.6398 23.9121,-2.34766 1.27194,1.27197 1.36915,6.97037 1.36915,80.26367 0,62.17401 -0.21331,79.05573 -1.00391,79.65625 -1.12911,0.85765 -22.88937,3.23312 -36.31445,3.96485 -4.85537,0.2646 -13.5236,0.0598 -19.26172,-0.45704 -38.59371,-3.47575 -67.75302,-18.89829 -85.09571,-45.0039 -9.51126,-14.31711 -12.83618,-26.54648 -12.21875,-44.9375 0.30083,-8.96047 0.74331,-12.01983 2.5625,-17.66016 2.56928,-7.9659 7.28421,-17.13124 11.39063,-22.14258 3.55424,-4.33748 2.5796,-4.54043 -5.83789,-1.21875 -17.31813,6.83406 -28.94348,20.12185 -34.47461,39.4043 -1.97622,6.88947 -2.10895,8.26273 -1.69141,17.58398 0.53967,12.04564 2.44401,19.89049 7.34766,30.27344 15.40829,32.62578 44.05518,49.4109 93.13867,54.57227 l 5.61914,0.59179 -3.61133,0.59766 c -5.94704,0.98676 -28.69505,0.63493 -37.7207,-0.58398 -48.44457,-6.54263 -79.98356,-37.48843 -79.69922,-78.19922 0.0962,-13.77878 3.87063,-26.21907 11.85547,-39.0625 3.31041,-5.32464 0.35588,-3.3844 -5.64648,3.70703 -6.11479,7.22424 -12.41087,19.32206 -14.87891,28.58594 -2.20381,8.27218 -2.46318,24.46935 -0.52734,33.01757 3.84453,16.97703 14.9191,34.61823 28.60156,45.5586 2.71097,2.16763 4.75616,4.11493 4.54297,4.32812 -0.63531,0.63531 -16.82075,-7.70182 -21.01758,-10.82617 -21.34516,-15.89066 -31.22996,-38.56241 -29.67578,-68.0664 1.81516,-34.45923 20.87686,-65.22068 54.46484,-87.89258 21.0081,-14.18051 40.73638,-20.85157 61.66406,-20.85157 z"
       inkscape:label="new_icon" /></g></svg>
